<svg width="15" height="16" viewBox="0 0 15 16" fill="none" xmlns="http://www.w3.org/2000/svg">
<g clip-path="url(#clip0_7623_5005)">
<path d="M14.9925 8.14974C14.9925 7.49423 14.9415 7.01588 14.8311 6.51982H7.64984V9.47848H11.8651C11.7801 10.2137 11.3212 11.321 10.3013 12.0651L10.287 12.1642L12.5576 13.9976L12.7149 14.014C14.1596 12.6232 14.9925 10.5769 14.9925 8.14974Z" fill="#4285F4"/>
<path d="M7.64953 15.9451C9.71463 15.9451 11.4483 15.2364 12.7146 14.014L10.301 12.0651C9.65517 12.5346 8.7883 12.8624 7.64953 12.8624C5.6269 12.8624 3.91021 11.4716 3.29826 9.54938L3.20856 9.55732L0.847587 11.4619L0.816711 11.5513C2.07448 14.1557 4.65803 15.9451 7.64953 15.9451Z" fill="#34A853"/>
<path d="M3.29798 9.54932C3.13652 9.05326 3.04307 8.52171 3.04307 7.97252C3.04307 7.42327 3.13652 6.89179 3.28949 6.39573L3.28521 6.29008L0.894659 4.35493L0.816444 4.39371C0.29806 5.47445 0.000610352 6.68806 0.000610352 7.97252C0.000610352 9.25698 0.29806 10.4705 0.816444 11.5513L3.29798 9.54932Z" fill="#FBBC05"/>
<path d="M7.6495 3.08272C9.08572 3.08272 10.0545 3.72937 10.607 4.26977L12.7656 2.07289C11.4398 0.788428 9.7146 3.05176e-05 7.6495 3.05176e-05C4.65801 3.05176e-05 2.07447 1.7894 0.816711 4.39374L3.28976 6.39576C3.9102 4.4735 5.62688 3.08272 7.6495 3.08272Z" fill="#EB4335"/>
</g>
<defs>
<clipPath id="clip0_7623_5005">
<rect width="15" height="16" fill="white"/>
</clipPath>
</defs>
</svg>
