<svg width="150" height="150" viewBox="0 0 150 150" fill="none" xmlns="http://www.w3.org/2000/svg">
<circle cx="75" cy="75" r="75" fill="#FEC0B2"/>
<circle cx="75" cy="75" r="75" fill="url(#paint0_radial_7623_3931)"/>
<mask id="mask0_7623_3931" style="mask-type:alpha" maskUnits="userSpaceOnUse" x="0" y="0" width="150" height="150">
<circle cx="75" cy="75" r="75" fill="#C4C4C4"/>
</mask>
<g mask="url(#mask0_7623_3931)">
<path d="M126.126 111.174C126.29 99.8307 122.509 97.8581 120.619 91.2003C118.716 84.4977 120.652 79.9208 118.4 72.5012C116.304 65.5969 112.496 64.4305 111.331 54.6238C109.358 38.0204 91.4396 29.4724 82.5627 29.4724C80.0526 29.4724 78.3386 30.1095 77.1863 30.8715C75.8526 31.7539 74.1487 31.7539 72.8153 30.8715C71.6629 30.1095 69.949 29.4724 67.4389 29.4724C58.5619 29.4724 40.6435 38.0204 38.6708 54.6238C37.5056 64.4303 33.6981 65.5967 31.6022 72.5012C29.3498 79.9208 31.2862 84.4977 29.383 91.2003C27.4925 97.8581 23.7116 99.8307 23.8759 111.174C24.0665 124.328 16.4784 127.284 19.4373 135.996C21.6458 142.499 33.5748 147.832 33.5748 147.832H116.427C116.427 147.832 128.356 142.498 130.564 135.996C133.523 127.284 125.935 124.328 126.126 111.174Z" fill="url(#paint1_linear_7623_3931)"/>
<path d="M75.0008 31.5332C74.2414 31.5332 73.482 31.3127 72.8153 30.8715C71.6629 30.1095 69.949 29.4724 67.4389 29.4724C58.5619 29.4724 40.6435 38.0204 38.6708 54.6238C37.5056 64.4303 33.6981 65.5967 31.6022 72.5012C29.3498 79.9208 31.2862 84.4977 29.383 91.2003C27.4925 97.8581 23.7116 99.8307 23.8759 111.174C24.0665 124.328 16.4784 127.284 19.4373 135.996C21.6458 142.499 33.5748 147.832 33.5748 147.832H75.0008V31.5332Z" fill="url(#paint2_linear_7623_3931)"/>
<path d="M112.476 125.319L92.1014 118.128C88.9466 117.014 86.8368 114.032 86.8368 110.687V100.488H63.1647V110.687C63.1647 114.032 61.055 117.014 57.9001 118.128L37.526 125.319C32.7938 126.989 29.6294 131.462 29.6294 136.48V145.86C29.6294 149.128 32.279 151.778 35.5473 151.778H114.454C117.722 151.778 120.372 149.128 120.372 145.86V136.48C120.372 131.462 117.208 126.989 112.476 125.319Z" fill="url(#paint3_linear_7623_3931)"/>
<path d="M112.475 125.319L98.8808 120.521C93.5306 127.916 86.2491 136.071 77.7733 140.59C76.0443 141.511 73.957 141.511 72.228 140.59C63.7521 136.071 56.4706 127.916 51.1205 120.521L37.526 125.319C32.7938 126.989 29.6294 131.462 29.6294 136.48V145.86C29.6294 149.129 32.279 151.778 35.5473 151.778H114.454C117.722 151.778 120.372 149.129 120.372 145.86V136.48C120.372 131.462 117.207 126.989 112.475 125.319Z" fill="url(#paint4_linear_7623_3931)"/>
<path d="M63.1648 105.855C66.807 107.465 70.8091 108.379 75.0007 108.379C79.1923 108.379 83.1945 107.466 86.8366 105.855V100.488H63.1646L63.1648 105.855Z" fill="url(#paint5_linear_7623_3931)"/>
<path d="M75.0007 104.433C60.8374 104.433 49.356 92.9521 49.356 78.7888V45.2537H100.645V78.789C100.645 92.9521 89.1637 104.433 75.0007 104.433Z" fill="url(#paint6_linear_7623_3931)"/>
<path d="M49.356 45.2537V78.789C49.356 92.9521 60.8376 104.434 75.0007 104.434C76.346 104.434 77.6565 104.299 78.946 104.1C66.661 102.197 57.2466 91.6072 57.2466 78.789V68.5301C57.2466 66.9082 57.7496 65.3411 58.6086 63.9652C58.6132 63.958 58.6177 63.9506 58.6223 63.9435C61.8612 58.7457 64.8933 57.9815 68.4036 57.0972C70.4197 56.5891 72.7686 55.9972 75.0004 54.5099C77.2325 55.9972 79.5814 56.5891 81.5973 57.0972C85.1078 57.9818 88.1397 58.7457 91.3786 63.9432C94.3918 68.7781 97.7636 71.4507 100.645 73.5153V45.2537H49.356Z" fill="url(#paint7_linear_7623_3931)"/>
<path d="M75.0007 92.5979C72.0398 92.5979 69.3099 91.6482 67.6975 90.057C66.9211 89.2902 66.9135 88.0421 67.6781 87.2676C68.4468 86.4913 69.6952 86.4836 70.4675 87.2483C71.1244 87.8956 72.7041 88.6526 75.0004 88.6526C77.2968 88.6526 78.8765 87.8956 79.5334 87.2483C80.3059 86.4834 81.5543 86.4913 82.3228 87.2676C83.0876 88.0421 83.0798 89.2904 82.3034 90.057C80.6915 91.6482 77.9616 92.5979 75.0007 92.5979Z" fill="#A06E50"/>
<path d="M63.1648 78.7886C62.0743 78.7886 61.1921 77.9061 61.1921 76.8159V74.8433C61.1921 73.7528 62.0746 72.8706 63.1648 72.8706C64.255 72.8706 65.1374 73.753 65.1374 74.8433V76.8159C65.1374 77.9061 64.255 78.7886 63.1648 78.7886Z" fill="url(#paint8_radial_7623_3931)"/>
<path d="M86.8367 78.7886C85.7462 78.7886 84.864 77.9061 84.864 76.8159V74.8433C84.864 73.7528 85.7464 72.8706 86.8367 72.8706C87.9271 72.8706 88.8093 73.753 88.8093 74.8433V76.8159C88.8093 77.9061 87.9271 78.7886 86.8367 78.7886Z" fill="url(#paint9_radial_7623_3931)"/>
<path d="M65.1374 70.8977H61.1921C60.1017 70.8977 59.2195 70.0153 59.2195 68.925C59.2195 67.8348 60.1019 66.9524 61.1921 66.9524H65.1374C66.2279 66.9524 67.1101 67.8348 67.1101 68.925C67.1101 70.0153 66.2277 70.8977 65.1374 70.8977Z" fill="url(#paint10_linear_7623_3931)"/>
<path d="M88.8093 70.8977H84.864C83.7735 70.8977 82.8914 70.0153 82.8914 68.925C82.8914 67.8348 83.7738 66.9524 84.864 66.9524H88.8093C89.8998 66.9524 90.782 67.8348 90.782 68.925C90.782 70.0153 89.8998 70.8977 88.8093 70.8977Z" fill="url(#paint11_linear_7623_3931)"/>
<path d="M44.0739 136.063L34.0047 127.32C32.973 128.161 32.1061 129.169 31.4136 130.293L41.4885 139.042C42.783 140.167 43.5266 141.796 43.5266 143.511V151.777H47.4719V143.511C47.4721 140.652 46.2336 137.938 44.0739 136.063Z" fill="url(#paint12_linear_7623_3931)"/>
<path d="M106.017 136.063L116.086 127.32C117.118 128.161 117.984 129.169 118.677 130.293L108.602 139.042C107.308 140.167 106.564 141.796 106.564 143.511V151.777H102.619V143.511C102.618 140.652 103.857 137.938 106.017 136.063Z" fill="url(#paint13_linear_7623_3931)"/>
<path d="M120.619 91.2003C118.716 84.4977 120.652 79.9208 118.4 72.5012C116.304 65.5969 112.496 64.4305 111.331 54.6238C109.358 38.0204 91.4396 29.4724 82.5626 29.4724C80.0525 29.4724 78.3386 30.1095 77.1862 30.8715C76.5195 31.3127 75.7601 31.5332 75.0007 31.5332V49.1992C80.0967 55.6104 87.6586 50.5142 94.7275 61.8571C100.736 71.4982 108.28 71.2545 110.934 78.8556C111.695 81.0342 111.282 83.3618 111.464 85.6622C112.481 98.5157 122.345 104.434 126.778 117.847C126.356 115.932 126.088 113.753 126.126 111.174C126.29 99.8307 122.509 97.8581 120.619 91.2003Z" fill="url(#paint14_linear_7623_3931)"/>
<path d="M29.3828 91.2003C31.286 84.4977 29.3496 79.9208 31.602 72.5012C33.6979 65.5969 37.5056 64.4305 38.6707 54.6238C40.6435 38.0204 58.562 29.4724 67.4389 29.4724C69.9491 29.4724 71.663 30.1095 72.8154 30.8715C73.4821 31.3127 74.2415 31.5332 75.0009 31.5332V49.1992C69.9049 55.6104 62.343 50.5142 55.2741 61.8571C49.2658 71.4982 41.7214 71.2545 39.0674 78.8556C38.3068 81.0342 38.7194 83.3618 38.5374 85.6622C37.5202 98.5157 27.657 104.434 23.2231 117.847C23.646 115.932 23.9133 113.753 23.8758 111.174C23.7114 99.8307 27.4924 97.8581 29.3828 91.2003Z" fill="url(#paint15_linear_7623_3931)"/>
</g>
<defs>
<radialGradient id="paint0_radial_7623_3931" cx="0" cy="0" r="1" gradientUnits="userSpaceOnUse" gradientTransform="translate(23.4375 23.4375) rotate(48.4682) scale(146.108)">
<stop offset="0.449021" stop-color="#FEC0B2"/>
<stop offset="1" stop-color="#FF866B"/>
</radialGradient>
<linearGradient id="paint1_linear_7623_3931" x1="75.0009" y1="29.4724" x2="75.0009" y2="147.832" gradientUnits="userSpaceOnUse">
<stop stop-color="#33282D"/>
<stop offset="1" stop-color="#6E5561"/>
</linearGradient>
<linearGradient id="paint2_linear_7623_3931" x1="46.8762" y1="29.4724" x2="46.8762" y2="147.832" gradientUnits="userSpaceOnUse">
<stop stop-color="#1A1417"/>
<stop offset="1" stop-color="#5A4650"/>
</linearGradient>
<linearGradient id="paint3_linear_7623_3931" x1="57.1779" y1="118.173" x2="80.107" y2="147.546" gradientUnits="userSpaceOnUse">
<stop stop-color="#D4A06C"/>
<stop offset="1" stop-color="#FABD80"/>
</linearGradient>
<linearGradient id="paint4_linear_7623_3931" x1="43.7499" y1="123.437" x2="104.687" y2="146.875" gradientUnits="userSpaceOnUse">
<stop stop-color="#ACED8E"/>
<stop offset="1" stop-color="#A6FFAA"/>
</linearGradient>
<linearGradient id="paint5_linear_7623_3931" x1="63.924" y1="101.611" x2="70.0053" y2="114.035" gradientUnits="userSpaceOnUse">
<stop stop-color="#C58646"/>
<stop offset="1" stop-color="#C68748" stop-opacity="0.06"/>
</linearGradient>
<linearGradient id="paint6_linear_7623_3931" x1="51.9239" y1="51.9845" x2="100.363" y2="79.5344" gradientUnits="userSpaceOnUse">
<stop stop-color="#EDB379"/>
<stop offset="1" stop-color="#FFC182"/>
</linearGradient>
<linearGradient id="paint7_linear_7623_3931" x1="51.0015" y1="53.6753" x2="82.5175" y2="68.1659" gradientUnits="userSpaceOnUse">
<stop stop-color="#C58646"/>
<stop offset="1" stop-color="#C68748" stop-opacity="0.06"/>
</linearGradient>
<radialGradient id="paint8_radial_7623_3931" cx="0" cy="0" r="1" gradientUnits="userSpaceOnUse" gradientTransform="translate(62.3791 74.6405) rotate(71.565) scale(4.99015 3.32677)">
<stop stop-color="#040404"/>
<stop offset="1" stop-color="#767676"/>
</radialGradient>
<radialGradient id="paint9_radial_7623_3931" cx="0" cy="0" r="1" gradientUnits="userSpaceOnUse" gradientTransform="translate(86.051 74.6405) rotate(71.5651) scale(4.99015 3.32677)">
<stop stop-color="#040404"/>
<stop offset="1" stop-color="#767676"/>
</radialGradient>
<linearGradient id="paint10_linear_7623_3931" x1="59.7339" y1="67.967" x2="60.536" y2="72.0619" gradientUnits="userSpaceOnUse">
<stop stop-color="#403239"/>
<stop offset="1" stop-color="#806371"/>
</linearGradient>
<linearGradient id="paint11_linear_7623_3931" x1="83.4058" y1="67.967" x2="84.2078" y2="72.0619" gradientUnits="userSpaceOnUse">
<stop stop-color="#403239"/>
<stop offset="1" stop-color="#806371"/>
</linearGradient>
<linearGradient id="paint12_linear_7623_3931" x1="39.0626" y1="125" x2="39.4427" y2="151.777" gradientUnits="userSpaceOnUse">
<stop stop-color="#87BA70"/>
<stop offset="1" stop-color="#87BA70" stop-opacity="0"/>
</linearGradient>
<linearGradient id="paint13_linear_7623_3931" x1="110.938" y1="125" x2="110.648" y2="151.777" gradientUnits="userSpaceOnUse">
<stop stop-color="#86C985"/>
<stop offset="1" stop-color="#86C985" stop-opacity="0"/>
</linearGradient>
<linearGradient id="paint14_linear_7623_3931" x1="79.6874" y1="31.2501" x2="125" y2="115.625" gradientUnits="userSpaceOnUse">
<stop stop-color="#5C4B53"/>
<stop offset="1" stop-color="#7A646F"/>
</linearGradient>
<linearGradient id="paint15_linear_7623_3931" x1="57.8126" y1="29.6876" x2="23.4376" y2="132.813" gradientUnits="userSpaceOnUse">
<stop offset="0.00373261" stop-color="#4A3B43"/>
<stop offset="1" stop-color="#826875"/>
</linearGradient>
</defs>
</svg>
